<svg xmlns="http://www.w3.org/2000/svg" viewBox="0 0 119.23 131.87"><defs><style>.cls-1,.cls-4{fill:#ff3f0b;}.cls-1{stroke:#ff3f0b;}.cls-1,.cls-2,.cls-3{stroke-miterlimit:10;}.cls-2{fill:#fff;stroke:#fff;}.cls-3{fill:#cb6120;stroke:#cb6120;}</style></defs><title>Libro</title><g id="Capa_2" data-name="Capa 2"><g id="Capa_10" data-name="Capa 10"><path class="cls-1" d="M32.78,10.08H99.55a3.23,3.23,0,0,1,3.23,3.23v86.86a3.34,3.34,0,0,1-3.34,3.34H32.78a0,0,0,0,1,0,0V10.08A0,0,0,0,1,32.78,10.08Z" transform="translate(-18.16 35.96) rotate(-26.34)"/><path class="cls-2" d="M27.36,18.51H94.14a3.23,3.23,0,0,1,3.23,3.23V108.6A3.34,3.34,0,0,1,94,111.94H27.36a0,0,0,0,1,0,0V18.51a0,0,0,0,1,0,0Z" transform="translate(-15.95 20.38) rotate(-16.49)"/><path class="cls-3" d="M21.36,26.8H88.14A3.23,3.23,0,0,1,91.36,30v86.86A3.34,3.34,0,0,1,88,120.23H21.36a0,0,0,0,1,0,0V26.8A0,0,0,0,1,21.36,26.8Z" transform="translate(-8.31 7.19) rotate(-6.8)"/><rect class="cls-4" x="5.38" y="25.05" width="16.29" height="107.14" rx="8.14" transform="translate(-9.22 2.15) rotate(-6.8)"/></g></g></svg>