<svg xmlns="http://www.w3.org/2000/svg" viewBox="0 0 83.79 95.47"><defs><style>.cls-1{fill:#ff3f0b;}.cls-2{fill:#cb6120;}.cls-3{fill:#f7f7f8;}</style></defs><title>Lupa</title><g id="Capa_2" data-name="Capa 2"><g id="Capa_7" data-name="Capa 7"><circle class="cls-1" cx="54.24" cy="31.32" r="27.77"/><path class="cls-2" d="M56,0A27.77,27.77,0,1,0,83.79,27.77,27.77,27.77,0,0,0,56,0Zm0,49.6A21.84,21.84,0,1,1,77.86,27.77,21.83,21.83,0,0,1,56,49.6Z"/><circle class="cls-3" cx="54.88" cy="28.91" r="20.69" transform="translate(7.16 68.55) rotate(-67.5)"/><path class="cls-2" d="M41.12,55.8,7.47,95.38s-2.31.71-5.22-1.93C-.37,91.09,0,89.05,0,89.05L33.55,49.6A5.53,5.53,0,0,1,39,51C41.78,53.45,41.12,55.8,41.12,55.8Z"/></g></g></svg>