<svg xmlns="http://www.w3.org/2000/svg" viewBox="0 0 111.07 83.56"><defs><style>.cls-1{fill:#d8d9dd;}.cls-2{fill:#727176;stroke:#727176;stroke-width:0.5px;}.cls-2,.cls-6{stroke-miterlimit:10;}.cls-3{fill:#ff3f0b;}.cls-4{fill:#db9600;}.cls-5{fill:#cb6120;}.cls-6{fill:none;stroke:#fff;}</style></defs><title>monitor</title><g id="Capa_2" data-name="Capa 2"><g id="Capa_5" data-name="Capa 5"><polygon class="cls-1" points="71.47 81.08 68.99 67.49 42.08 67.49 39.6 81.08 29.32 81.08 29.32 83.56 81.75 83.56 81.75 81.08 71.47 81.08"/><rect class="cls-1" x="0.25" width="110.57" height="67.49" rx="4.82"/><rect x="3.68" y="3.81" width="103.72" height="54.33"/><path class="cls-2" d="M5.84,67.49h99.39a5.78,5.78,0,0,0,5.59-6V58.15H.25v3.38A5.78,5.78,0,0,0,5.84,67.49Z"/><rect class="cls-3" x="11.21" y="14.3" width="19.7" height="3.4"/><rect class="cls-4" x="16.3" y="20.97" width="19.7" height="3.4"/><rect class="cls-3" x="11.21" y="27.64" width="19.7" height="3.4"/><rect class="cls-3" x="16.3" y="36.22" width="19.7" height="3.4"/><rect class="cls-3" x="36" y="27.64" width="19.7" height="3.4"/><rect class="cls-3" x="16.3" y="48.6" width="19.7" height="3.4"/><rect class="cls-5" x="16.3" y="42.89" width="19.7" height="3.4"/><rect class="cls-3" x="40.76" y="42.89" width="19.7" height="3.4"/><rect class="cls-5" x="62.05" y="27.64" width="19.7" height="3.4"/><polyline class="cls-6" points="33.13 17.98 35.99 15.72 33.13 14.02"/><polyline class="cls-6" points="10.02 17.98 7.16 15.72 10.02 14.02"/><line class="cls-6" x1="39.11" y1="39.63" x2="40.76" y2="36.22"/><polyline class="cls-6" points="42.98 39.91 45.84 37.65 42.98 35.94"/></g></g></svg>