<svg xmlns="http://www.w3.org/2000/svg" viewBox="0 0 106.17 106.17"><defs><style>.cls-1{fill:none;}.cls-2{fill:#ff3f0b;}.cls-3{fill:#cb6120;}</style></defs><title>Recurso 1</title><g id="Capa_2" data-name="Capa 2"><g id="Capa_1-2" data-name="Capa 1"><path class="cls-1" d="M64.09,46.33,74.72,35.7a28.11,28.11,0,0,0-2.39-2.61L59.09,46.33,72.33,33.09a27.69,27.69,0,0,0-13.72-7.22v0a29.32,29.32,0,0,0-5-.54v0h-.53a27.59,27.59,0,0,0-16.7,5.59L47.69,42.22,36.38,30.91a27.14,27.14,0,0,0-2.69,2.32l14,14-14-14a27.65,27.65,0,0,0-7.91,14.85h0a27.6,27.6,0,0,0-.46,5h0a27.7,27.7,0,0,0,5.57,16.69L43.51,57.15,30.89,69.77a29.52,29.52,0,0,0,2.31,2.69L48.51,57.15,33.2,72.46A27.72,27.72,0,0,0,49,80.54v0a27.53,27.53,0,0,0,4.09.31l.91,0v0a27.71,27.71,0,0,0,18-7.46L59.91,61.26,72,73.37a26.84,26.84,0,0,0,2.43-2.57L61.74,58.08h0l-1.83-1.82,1.83,1.82H80.39a27.43,27.43,0,0,0,.46-5h0A27.63,27.63,0,0,0,74.72,35.7Z"/><path class="cls-1" d="M74.46,70.8a27.63,27.63,0,0,0,5.93-12.72H61.74Z"/><path class="cls-2" d="M36.38,30.91a27.59,27.59,0,0,1,16.7-5.59h.53V12l-11-11A53,53,0,0,0,13.86,17.32h8.92Z"/><path class="cls-2" d="M74.72,35.7a27.63,27.63,0,0,1,6.13,17.38H94.31l10.77-10.76A53.07,53.07,0,0,0,89,14v7.44Z"/><path class="cls-3" d="M25.78,48.08a27.65,27.65,0,0,1,7.91-14.85L22.78,22.32H9.84A52.79,52.79,0,0,0,0,53.08a53.79,53.79,0,0,0,.47,7l12-12Z"/><path class="cls-2" d="M58.61,25.87a27.69,27.69,0,0,1,13.72,7.22L84,21.43V9.94A52.79,52.79,0,0,0,53.08,0,53.74,53.74,0,0,0,47,.36L58.61,12Z"/><path class="cls-2" d="M80.39,58.08A27.63,27.63,0,0,1,74.46,70.8L84.82,81.16H98.13a52.67,52.67,0,0,0,7.63-34.53L94.31,58.08Z"/><path class="cls-2" d="M72,73.37a27.71,27.71,0,0,1-18,7.46V91.47l12.88,12.88A53.07,53.07,0,0,0,94.59,86.16H84.82Z"/><path class="cls-2" d="M30.89,69.77a27.7,27.7,0,0,1-5.57-16.69H12.47L1.21,64.34a53,53,0,0,0,17.4,29.09V82.05Z"/><path class="cls-2" d="M49,80.54A27.72,27.72,0,0,1,33.2,72.46l-9.59,9.59V97.23a52.76,52.76,0,0,0,29.47,8.94,53.35,53.35,0,0,0,9.7-.9L49,91.47Z"/></g></g></svg>