<svg xmlns="http://www.w3.org/2000/svg" viewBox="0 0 140.69 125.14"><defs><style>.cls-1{fill:#ff3f0b;}</style></defs><title>React</title><g id="Capa_2" data-name="Capa 2"><g id="Capa_8" data-name="Capa 8"><path class="cls-1" d="M100.34,0c.74.15,1.48.26,2.21.45a11.88,11.88,0,0,1,7.3,5.63,24.18,24.18,0,0,1,3.08,9.07,44.18,44.18,0,0,1,.46,8.9,76.11,76.11,0,0,1-1.94,13.85c-.29,1.23-.3,1.23.9,1.59a70.43,70.43,0,0,1,15.57,6.59,32.05,32.05,0,0,1,9.82,8.31,13.12,13.12,0,0,1,2.93,8.78,13.51,13.51,0,0,1-2.4,6.69A27.93,27.93,0,0,1,131,77a60.1,60.1,0,0,1-14.37,7.32c-1.55.58-3.12,1.11-4.71,1.57-.33.1-.5.2-.39.62A67.57,67.57,0,0,1,113.38,97a44.74,44.74,0,0,1-1,16.46,17.77,17.77,0,0,1-4.75,8.46,11.62,11.62,0,0,1-6.81,3.08,22.59,22.59,0,0,1-11.31-2,53.63,53.63,0,0,1-13.06-8.06,62.54,62.54,0,0,1-5.26-4.64c-.39-.4-.63-.4-1,0a65.71,65.71,0,0,1-15.68,11.34,32,32,0,0,1-9.61,3.22c-3.47.51-6.86.31-10-1.57a13.6,13.6,0,0,1-5.28-6.35,28.73,28.73,0,0,1-2.2-9,48.11,48.11,0,0,1-.06-8.14A76.21,76.21,0,0,1,29.37,87c.11-.45.08-.65-.44-.81a65.06,65.06,0,0,1-18-8.12,29.37,29.37,0,0,1-8.57-8.27A13.31,13.31,0,0,1,0,62a13.54,13.54,0,0,1,2.71-7.37,30.58,30.58,0,0,1,9.54-8.35,69.09,69.09,0,0,1,16.68-7c.5-.14.66-.29.52-.85a76.42,76.42,0,0,1-1.67-8.63c-.25-1.9-.43-3.8-.53-5.72a47.28,47.28,0,0,1,.14-6.94C27.81,13,28.68,9,31.07,5.48a11.75,11.75,0,0,1,9-5.26A22.19,22.19,0,0,1,50,1.82a54.27,54.27,0,0,1,14.88,8.83,61.75,61.75,0,0,1,5.09,4.46c.36.36.58.38,1,0A69.77,69.77,0,0,1,84.5,4.66,34.76,34.76,0,0,1,95.66.3,6.33,6.33,0,0,0,97.22,0ZM70.19,85.2c4.09.06,8.19-.1,12.28-.35a1.32,1.32,0,0,0,1.15-.64A196,196,0,0,0,95.79,63a1,1,0,0,0,0-1A199,199,0,0,0,83.62,41a1.44,1.44,0,0,0-1.27-.71c-2.29-.11-4.59-.29-6.88-.34-5.74-.14-11.47,0-17.19.34a1.37,1.37,0,0,0-1.17.67A175,175,0,0,0,45,62.13a1,1,0,0,0,0,1c1.54,3.12,3.15,6.2,4.86,9.23q3.51,6.21,7.52,12.11a.66.66,0,0,0,.56.38c1.09.05,2.19.16,3.28.2C64.19,85.17,67.19,85.24,70.19,85.2ZM6,62.17c0,.16,0,.32,0,.48A2.29,2.29,0,0,0,6.1,63a13.14,13.14,0,0,0,5.13,7.82,55.39,55.39,0,0,0,19.29,9.61c.51.14.68,0,.83-.46a137.89,137.89,0,0,1,6.48-16.81,1.23,1.23,0,0,0,0-1.18c-1-2.07-1.87-4.19-2.73-6.32-1.38-3.41-2.6-6.87-3.72-10.37-.1-.31-.18-.46-.58-.34a64.32,64.32,0,0,0-15.63,6.58,25.37,25.37,0,0,0-7.31,6.22A8.15,8.15,0,0,0,6,62.17ZM42.53,119a11,11,0,0,0,4.53-.8,56.7,56.7,0,0,0,9.42-4.7,62,62,0,0,0,9.57-7.67c.26-.25.28-.42,0-.68-.48-.49-.93-1-1.38-1.51A149.16,149.16,0,0,1,54.58,91a.91.91,0,0,0-.74-.41c-2.08-.19-4.17-.37-6.25-.63-3.6-.44-7.17-1-10.73-1.75-.48-.1-1-.46-1.44-.19s-.31.91-.42,1.39a66.06,66.06,0,0,0-1.83,13.49,36.43,36.43,0,0,0,.36,6.09,18.11,18.11,0,0,0,1.94,6.38,5.88,5.88,0,0,0,3.37,3.14A11.08,11.08,0,0,0,42.53,119Zm65.13-16.89c0-.68-.06-1.36-.08-2a60.25,60.25,0,0,0-1.78-11.87c-.13-.56-.36-.6-.81-.5a132.05,132.05,0,0,1-17.9,2.74,1,1,0,0,0-.79.46c-.82,1.18-1.64,2.36-2.49,3.52q-4.07,5.54-8.65,10.65c-.31.33-.29.53,0,.81,1.35,1.19,2.66,2.42,4,3.57a49.34,49.34,0,0,0,12.71,8,17.45,17.45,0,0,0,7.31,1.6,5.43,5.43,0,0,0,3.54-1.1,11.64,11.64,0,0,0,3.89-6.25A49.46,49.46,0,0,0,107.66,102.15ZM33.25,21.68a44.45,44.45,0,0,0,.41,6.6,72.13,72.13,0,0,0,1.55,8.35c.28,1.17,0,1,1.17.73A136.79,136.79,0,0,1,53,34.8a2.33,2.33,0,0,0,1.94-1.09c1.65-2.42,3.48-4.73,5.32-7s3.74-4.43,5.68-6.57c.23-.25.22-.39,0-.62a70.18,70.18,0,0,0-10.5-8.24c-3.94-2.45-8-4.6-12.73-5.08-2.9-.3-5.34.46-6.93,3.11a14.24,14.24,0,0,0-1.38,3.18A30.21,30.21,0,0,0,33.25,21.68Zm74.17,0a40.43,40.43,0,0,0-.37-5.23,18.82,18.82,0,0,0-2.18-7,6.18,6.18,0,0,0-4.75-3.35,12.39,12.39,0,0,0-4.5.36,35.66,35.66,0,0,0-11.24,5.38A71.52,71.52,0,0,0,75,19.46c-.32.29-.33.43-.05.74A137.23,137.23,0,0,1,86.23,34.27a.91.91,0,0,0,.73.43c1.51.14,3,.29,4.52.48,4.47.59,8.91,1.33,13.31,2.34.44.1.6,0,.69-.45A70.67,70.67,0,0,0,107.42,21.71ZM134.67,63.1a7.29,7.29,0,0,0-1.23-4.4,21,21,0,0,0-6-5.79,61,61,0,0,0-17.28-7.81c-.5-.15-.68-.05-.83.45A135.37,135.37,0,0,1,102.89,62a1,1,0,0,0,0,1,135.15,135.15,0,0,1,6.65,16.55c.25.76.25.76,1.05.52a65.63,65.63,0,0,0,13.64-5.81,28.84,28.84,0,0,0,8.25-6.65A8.45,8.45,0,0,0,134.67,63.1ZM99.28,69.43c-2.64,5-5.39,9.82-8.37,14.56a13.9,13.9,0,0,0,2.25-.23C96.6,83.32,100,82.68,103.4,82c.52-.11.57-.3.41-.76-.77-2.27-1.56-4.53-2.45-6.75C100.72,72.83,100,71.22,99.28,69.43ZM78.85,91.06c-5.66.23-11.13.18-16.66.07.07.12.1.19.14.25q3.7,4.83,7.77,9.35c.37.41.58.43,1,0,1.65-1.93,3.31-3.84,4.87-5.84C76.88,93.67,77.81,92.43,78.85,91.06Zm-28.95-7c-3-4.7-5.76-9.44-8.3-14.3a.75.75,0,0,0-.31.44q-2.34,5.58-4.18,11.35c-.15.46,0,.52.41.6,3.18.68,6.39,1.19,9.6,1.63A17,17,0,0,0,49.9,84.11Zm12.15-50c5.63-.23,11.06-.22,16.47,0a.43.43,0,0,0-.15-.42q-3.56-4.7-7.49-9c-.47-.53-.48-.52-1,0-1.88,2.1-3.73,4.23-5.48,6.43C63.65,32,62.92,33,62.05,34.1ZM99.17,55.45c.09-.11.13-.13.15-.17,1.61-3.73,3-7.55,4.27-11.42.15-.46-.09-.48-.41-.55-2.68-.61-5.38-1.11-8.1-1.54-1.34-.21-2.7-.38-4.2-.59C93.89,45.89,96.59,50.6,99.17,55.45Zm-57.65.11c2.57-5,5.31-9.69,8.28-14.38-2.19.28-4.2.54-6.2.91l-6,1.13c-.44.08-.54.24-.4.68q1.17,3.65,2.55,7.23C40.31,52.56,40.89,54,41.52,55.56Z"/><path class="cls-1" d="M70.31,75a12.55,12.55,0,1,1,12.6-12.49A12.5,12.5,0,0,1,70.31,75Z"/></g></g></svg>