<svg xmlns="http://www.w3.org/2000/svg" viewBox="0 0 151 151"><defs><style>.cls-1{fill:none;stroke:#4a72b2;stroke-miterlimit:10;}.cls-2{fill:#cb6120;}.cls-3{fill:#ff3f0b;}.cls-4{fill:#c64832;}.cls-5{fill:#db9600;}</style></defs><title>Rompecabezas</title><g id="Capa_2" data-name="Capa 2"><g id="Capa_3" data-name="Capa 3"><circle class="cls-1" cx="75.5" cy="75.5" r="75"/></g><g id="Capa_6" data-name="Capa 6"><path class="cls-2" d="M71,42.21H66.21V27.77H39.85A12.08,12.08,0,0,0,27.77,39.85V66.21H42.21V61.44a4.78,4.78,0,0,1,9.56,0v4.77H66.21V51.77H71a4.78,4.78,0,0,0,0-9.56Z"/><path class="cls-3" d="M90.21,71V66.21h14.45V39.85A12.08,12.08,0,0,0,92.57,27.77H66.21V42.21H71a4.78,4.78,0,0,1,0,9.56H66.21V66.21H80.66V71a4.78,4.78,0,1,0,9.55,0Z"/><path class="cls-4" d="M80,108.79h4.78v14.44h26.36a12.08,12.08,0,0,0,12.08-12.08V84.79H108.79v4.77a4.78,4.78,0,0,1-9.56,0V84.79H84.79V99.23H80a4.78,4.78,0,0,0,0,9.56Z"/><path class="cls-5" d="M42.21,61.44v4.77H27.77V92.57a12.08,12.08,0,0,0,12.08,12.09H66.21V90.21H61.44a4.78,4.78,0,1,1,0-9.55h4.77V66.21H51.77V61.44a4.78,4.78,0,0,0-9.56,0Z"/></g></g></svg>