<svg xmlns="http://www.w3.org/2000/svg" viewBox="0 0 139.68 139.66"><defs><style>.cls-1{fill:#ff3f0b;}.cls-2{fill:#c64832;}.cls-3{fill:#cb6120;}.cls-4{fill:#db9600;}</style></defs><title>Velas</title><g id="Capa_2" data-name="Capa 2"><g id="Capa_9" data-name="Capa 9"><path class="cls-1" d="M.05,1.08C1.06.54,1.93-.54,3.29.32S4.46,2.73,4.46,4.1Q4.47,68,4.39,132c0,2.72.65,3.3,3.32,3.3q63.39-.15,126.76-.07c.66,0,1.31,0,2,0,1.15,0,2.23.07,2.93,1.18.86,1.37-.23,2.23-.78,3.23q-68.07,0-136.15,0c-2,0-2.43-.41-2.43-2.42Q.11,69.15.05,1.08Z"/><path class="cls-1" d="M115.68,86.06c0-7.81,0-15.62,0-23.43,0-2.3.48-3.91,3.16-3.78,1.24.06,1.31-.66,1.27-1.59,0-1.49.5-2.63,2.16-2.63s2.23,1.21,2.2,2.64c0,1.22.4,1.62,1.6,1.6,2.21,0,2.76,1.35,2.76,3.31q0,24,0,48c0,1.93-.52,3.34-2.8,3.23-1-.05-1.58.16-1.54,1.34.07,1.53-.41,2.94-2.18,3s-2.3-1.31-2.18-2.89c.08-1.12-.42-1.48-1.47-1.42-2.39.15-3-1.25-3-3.35C115.71,102.05,115.68,94.06,115.68,86.06Zm4.41,0c0,7,.06,13.94,0,20.9,0,1.79.56,2.16,2.21,2.13s2.28-.26,2.27-2.11q-.12-20.77,0-41.53c0-1.92-.64-2.27-2.39-2.31s-2.09.73-2.07,2.3C120.13,72.29,120.09,79.17,120.09,86Z"/><path class="cls-2" d="M78.66,96c0,4.56,0,9.12,0,13.68,0,2.21-.37,4-3.15,3.77-1.31-.1-1.25.74-1.25,1.61,0,2.79,0,5.59,0,8.38,0,1.54-.34,3-2.12,3-2,.07-2.33-1.43-2.31-3.08,0-2.14,0-4.28,0-6.42,0-1.87.6-4-2.69-3.68-1.21.12-1.7-1.27-1.7-2.49q0-14.8,0-29.6c0-1.68.89-2.67,2.6-2.56,1.54.1,1.91-.54,1.83-2A2,2,0,0,1,72,74.24a2.08,2.08,0,0,1,2.21,2.34c0,1.31.19,2.09,1.8,2,2.11-.11,2.63,1.33,2.62,3.13C78.65,86.46,78.66,91.2,78.66,96Zm-4.38.37c0-3.81-.1-7.63,0-11.44.08-1.91-.79-2.1-2.32-2.08s-2.21.1-2.18,1.9c.1,7.54.12,15.07,0,22.61,0,2,1.11,1.66,2.29,1.72s2.29,0,2.22-1.83C74.18,103.58,74.28,100,74.28,96.32Z"/><path class="cls-3" d="M30.64,74c0-4.74,0-9.49,0-14.23,0-1.89.58-3.13,2.65-3.06,1.4.05,1.72-.62,1.69-1.87-.07-2.79,0-5.58,0-8.38,0-1.57.55-2.89,2.33-2.81,1.6.08,2,1.34,2,2.82,0,2.79,0,5.58,0,8.37,0,1.24.24,1.93,1.66,1.87C43.16,56.64,43.71,58,43.7,60q-.08,14.23,0,28.47c0,2-.67,3.28-2.87,3.15-1.27-.08-1.64.5-1.54,1.65,0,.55,0,1.11,0,1.67.08,1.63-.22,3.19-2.2,3.17-1.77,0-2.21-1.46-2.13-3,.1-2,.34-3.85-2.76-3.71-1.41.07-1.57-1.55-1.56-2.83C30.65,83.7,30.64,78.86,30.64,74Zm8.65.22c0-3.8-.09-7.61,0-11.4C39.38,61,38.45,61,37.1,61s-2.21.18-2.19,1.93q.14,11.25,0,22.52c0,1.88,1,1.77,2.26,1.81s2.23-.08,2.16-1.87C39.19,81.65,39.29,77.94,39.29,74.24Z"/><path class="cls-1" d="M98.28,77.07c0-5,0-10,0-15,0-1.88.56-3.17,2.6-3.14,1.55,0,1.85-.67,1.82-2a2,2,0,0,1,2.23-2.26,1.92,1.92,0,0,1,2,2.2c-.08,1.56.5,2.09,2,2.09,1.7,0,2.37,1.1,2.37,2.78,0,10.5,0,21,0,31.48a4.74,4.74,0,0,1,0,.84c-.41,2.38-2.72,1.41-3.88,2.25s.19,3.53-2.15,4a2,2,0,0,1-2.53-2.17c0-1.48-.33-2.16-2-2.11-1.88.06-2.44-1.24-2.43-3C98.3,87.66,98.28,82.37,98.28,77.07Zm8.64.3c0-4-.07-8,0-12,0-1.66-.37-2.27-2.15-2.26s-2.2.54-2.18,2.23q.12,12.1,0,24.23c0,1.56.42,2.09,2,2,1.44,0,2.41,0,2.33-2C106.8,85.55,106.92,81.46,106.92,77.37Z"/><path class="cls-1" d="M26.27,46.92c0,3.62,0,7.25,0,10.87,0,2-.57,3.34-2.8,3.22-1.44-.08-1.76.62-1.62,1.85a10.25,10.25,0,0,1,0,1.11c0,1.63.08,3.49-2.11,3.52-2.37,0-2.37-1.94-2.29-3.65s.06-3.07-2.34-2.92c-1.47.09-2-1.2-2-2.52q0-11.55,0-23.12c0-1.49.75-2.62,2.35-2.51,1.95.14,2.12-.89,2-2.38a8.25,8.25,0,0,1,.07-2.22,2.09,2.09,0,0,1,2.3-2,2,2,0,0,1,2,2,8,8,0,0,1,0,1.95c-.23,1.77.17,2.72,2.28,2.67,1.79,0,2.15,1.42,2.14,3C26.26,39.49,26.27,43.21,26.27,46.92Zm-4.4,0c0-2.69-.11-5.38,0-8.06.09-1.74-.7-2-2.14-1.91-1.19.09-2.39-.23-2.35,1.74.11,5.46.1,10.93,0,16.39,0,2.07,1.34,1.52,2.44,1.62,1.27.11,2.11-.06,2-1.72C21.77,52.34,21.87,49.65,21.87,47Z"/><path class="cls-4" d="M82.92,102.24c0-2.23,0-4.47,0-6.7a13.25,13.25,0,0,1,0-1.67c.27-2.53,2.66-1.7,3.91-2.57,1.07-.75,0-3.46,2.18-3.94a2,2,0,0,1,2.55,2.14c-.08,1.76.54,2.18,2.2,2.16s2.28,1.3,2.27,2.9q0,7.95,0,15.9c0,1.74-.62,3-2.54,2.91-1.44-.05-2,.37-1.89,1.87a2.06,2.06,0,0,1-2,2.48c-1.61.07-2.33-1.07-2.31-2.55,0-1.24-.23-1.88-1.67-1.79-2.1.14-2.71-1.23-2.71-3C82.92,107.63,82.92,104.94,82.92,102.24Zm8.77.42c0-1.67-.13-3.36,0-5,.19-1.81-.89-1.72-2-1.65s-2.5-.48-2.42,1.61c.12,3.25.07,6.51,0,9.76,0,1.15.28,1.59,1.53,1.7,2.19.21,3.33-.29,2.93-2.78A23,23,0,0,1,91.69,102.66Z"/><path class="cls-4" d="M52.46,97.55c0-.93,0-1.87,0-2.79.08-1.82.31-3.55-2.53-3.29-1.24.12-1.86-1.07-1.87-2.34,0-2.7,0-5.4,0-8.1a2.18,2.18,0,0,1,2.4-2.45c1.28,0,2.18-.15,2-1.79a2.05,2.05,0,0,1,1.95-2.55c1.67-.11,2.33,1,2.35,2.5,0,1.23.28,1.92,1.71,1.83,1.9-.11,2.65,1,2.62,2.79,0,2.51,0,5,0,7.54,0,1.68-.75,2.78-2.48,2.66s-1.85.9-1.83,2.22c0,2.52,0,5,0,7.54,0,1.58-.15,3.21-2.16,3.26s-2.26-1.51-2.22-3.12C52.48,100.16,52.46,98.85,52.46,97.55Zm2.2-10.44c1.59.5,2.19-.11,2.22-1.91s-.42-2.44-2.32-2.43-2.17.62-2.15,2.27S52.66,87.62,54.66,87.11Z"/></g></g></svg>